<svg width="193" height="190" viewBox="0 0 193 190" fill="none" xmlns="http://www.w3.org/2000/svg">
<g clip-path="url(#clip0_6_172)">
<path d="M165.334 112.272C165.55 111.78 165.817 111.315 166.129 110.884L137.1 88.3005L129.613 105.203L147.76 113.241C151.807 120.219 162.067 119.648 165.334 112.272Z" fill="#DB2116"/>
<path d="M166.129 110.884C166.862 109.871 167.844 109.055 169.01 108.568C172.169 107.247 174.773 104.758 176.207 101.522C177.64 98.286 177.733 94.6848 176.588 91.4578C175.986 89.7603 176.127 87.8901 176.862 86.2456C180.129 78.8697 173.657 70.8876 165.77 72.5792L150.383 65.764L128.779 80.5127L150.475 108.361C154.484 113.582 162.62 114.569 166.129 110.884Z" fill="#FF3A2F"/>
<path d="M143.039 100.382C149.296 103.154 156.616 100.328 159.387 94.0704C162.159 87.8129 159.333 80.4934 153.076 77.7216C150.578 76.6154 147.911 76.4007 145.432 76.9401L139.133 74.1499L128.779 80.5128L137.323 95.247C138.589 97.4452 140.541 99.2758 143.039 100.382Z" fill="#A41910"/>
<path d="M170.28 55.5617C169.879 55.2039 169.519 54.8054 169.205 54.3756L140.772 72.7588L145.433 76.9389L165.771 72.5744C173.658 70.882 176.285 60.9478 170.28 55.5617Z" fill="#DB2116"/>
<path d="M169.205 54.3756C168.469 53.3656 167.996 52.1795 167.893 50.9203C167.613 47.5078 166.05 44.2618 163.416 41.8986C160.781 39.5356 157.385 38.3341 153.962 38.4254C152.162 38.4734 150.427 37.7616 149.09 36.5549C143.084 31.1685 133.493 34.8565 132.664 42.8808L121.428 55.4084L128.779 80.5127L161.969 68.4846C168.173 66.2843 171.626 58.8522 169.205 54.3756Z" fill="#FF3A2F"/>
<path d="M152.082 73.091C156.652 67.9963 156.226 60.1617 151.131 55.592C146.037 51.0223 138.202 51.4481 133.632 56.5426C131.809 58.5762 130.78 61.0458 130.527 63.5705L125.927 68.6994L128.779 80.5126L145.432 76.9399C147.914 76.415 150.258 75.1243 152.082 73.091Z" fill="#A41910"/>
<path d="M117.874 33.3325C117.409 33.6035 116.919 33.8232 116.414 33.9883L125.11 66.7105L130.526 63.5698L132.66 42.8784C133.488 34.8545 124.852 29.2857 117.874 33.3325Z" fill="#DB2116"/>
<path d="M116.413 33.9883C115.225 34.3766 113.951 34.4597 112.722 34.1688C109.39 33.3804 105.82 33.8633 102.758 35.6387C99.6965 37.4141 97.5042 40.2728 96.5335 43.5564C96.0229 45.2835 94.8097 46.7139 93.2489 47.6125C86.2705 51.6592 86.814 61.9209 94.1896 65.1884L102.632 79.7462L128.779 80.5127L127.596 45.2302C127.42 38.6501 121.419 33.0694 116.413 33.9883Z" fill="#FF3A2F"/>
<path d="M128.921 56.0568C125.488 50.1364 117.905 48.1202 111.985 51.5536C106.065 54.9869 104.049 62.5695 107.482 68.4897C108.852 70.8528 110.883 72.5939 113.206 73.6147L116.663 79.5748L128.779 80.5128L130.527 63.5707C130.795 61.0478 130.292 58.4197 128.921 56.0568Z" fill="#A41910"/>
<path d="M80.5379 76.3049C80.6522 76.8302 80.7094 77.3644 80.7104 77.8962L114.519 79.7366L113.205 73.6154L94.1861 65.1918C86.8103 61.9252 78.8457 68.4177 80.5379 76.3049Z" fill="#DB2116"/>
<path d="M80.7104 77.8962C80.7126 79.1462 80.3978 80.3835 79.7412 81.463C77.9618 84.3884 77.3179 87.9327 78.0603 91.3932C78.8028 94.8536 80.8442 97.8219 83.6671 99.7598C85.1518 100.779 86.1373 102.375 86.5097 104.137C88.202 112.025 98.1292 114.679 103.516 108.674L119.97 105.143L128.779 80.5126L94.8578 70.7351C88.5453 68.8686 81.3833 72.8516 80.7104 77.8962Z" fill="#FF3A2F"/>
<path d="M105.564 72.82C98.8724 74.2557 94.6118 80.8442 96.0476 87.5356C97.4834 94.2272 104.072 98.4878 110.763 97.052C113.434 96.479 115.718 95.0853 117.406 93.1915L124.143 91.746L128.779 80.5125L113.206 73.6144C110.889 72.5805 108.235 72.2469 105.564 72.82Z" fill="#A41910"/>
<path d="M109.87 125.093C110.405 125.146 110.93 125.257 111.436 125.42L123.634 93.8354L117.407 93.1929L103.518 108.678C98.1322 114.683 101.846 124.265 109.87 125.093Z" fill="#DB2116"/>
<path d="M111.437 125.42C112.626 125.804 113.705 126.486 114.529 127.444C116.762 130.04 119.934 131.748 123.454 132.111C126.975 132.475 130.428 131.45 133.144 129.364C134.572 128.267 136.394 127.823 138.185 128.014C146.21 128.842 151.802 120.22 147.755 113.242L128.779 80.5128L108.998 109.752C105.272 115.179 106.847 123.221 111.437 125.42Z" fill="#FF3A2F"/>
<path d="M114.289 100.214C113.587 107.022 118.536 113.11 125.344 113.812C132.151 114.515 138.239 109.565 138.942 102.758C139.222 100.04 138.602 97.438 137.323 95.2466L128.779 80.5126L117.406 93.1915C115.707 95.0755 114.569 97.4975 114.289 100.214Z" fill="#A41910"/>
<path d="M127.313 94.7252C128.359 96.3034 130.298 97.1643 132.261 96.743C134.225 96.3218 135.64 94.7411 135.947 92.8727C137.721 93.5346 139.796 93.0912 141.136 91.5965C142.477 90.1017 142.693 87.991 141.843 86.2991C143.667 85.7919 145.085 84.2136 145.291 82.2163C145.497 80.2189 144.431 78.3844 142.749 77.5154C143.927 76.0327 144.146 73.9225 143.139 72.1854C142.131 70.4484 140.191 69.5908 138.319 69.8766C138.4 67.9848 137.338 66.1486 135.502 65.3354C133.666 64.5222 131.592 64.9691 130.245 66.3005C129.199 64.7222 127.26 63.8614 125.297 64.2826C123.333 64.7039 121.918 66.2845 121.612 68.153C119.838 67.4911 117.763 67.9343 116.422 69.4292C115.081 70.9239 114.865 73.0346 115.716 74.7265C113.891 75.2338 112.473 76.812 112.267 78.8094C112.061 80.8067 113.127 82.6412 114.809 83.5103C113.632 84.993 113.412 87.1031 114.419 88.8402C115.427 90.5773 117.367 91.4348 119.239 91.1491C119.158 93.0409 120.221 94.8771 122.057 95.6902C123.892 96.5034 125.966 96.0565 127.313 94.7252Z" fill="#FFD185"/>
<path d="M120.5 76.8459C118.475 81.418 120.54 86.7662 125.112 88.7913C129.684 90.8165 135.032 88.7518 137.058 84.1796C139.083 79.6075 137.018 74.2593 132.446 72.2342C127.874 70.209 122.526 72.2738 120.5 76.8459Z" fill="#FFBA48"/>
<path d="M126.019 79.2905C125.344 80.8145 126.033 82.5972 127.557 83.2723C129.081 83.9473 130.863 83.2591 131.538 81.735C132.214 80.211 131.525 78.4283 130.001 77.7532C128.477 77.0782 126.694 77.7664 126.019 79.2905Z" fill="#FF7A3C"/>
</g>
<g clip-path="url(#clip1_6_172)">
<path d="M100.62 164.543C100.837 164.051 101.104 163.585 101.416 163.154L72.3867 140.571L64.9 157.474L83.0467 165.512C87.0935 172.49 97.3535 171.919 100.62 164.543Z" fill="#DB2116"/>
<path d="M101.416 163.154C102.149 162.142 103.131 161.326 104.297 160.838C107.456 159.517 110.06 157.029 111.493 153.793C112.927 150.557 113.02 146.955 111.875 143.728C111.273 142.031 111.414 140.161 112.148 138.516C115.415 131.14 108.944 123.158 101.056 124.85L85.6698 118.035L64.0658 132.783L85.7616 160.632C89.7712 165.852 97.9067 166.84 101.416 163.154Z" fill="#FF3A2F"/>
<path d="M78.3255 152.653C84.583 155.424 91.9026 152.598 94.674 146.341C97.4457 140.083 94.6197 132.764 88.3625 129.992C85.8649 128.886 83.1982 128.671 80.7191 129.211L74.4197 126.42L64.066 132.783L72.6099 147.518C73.8763 149.716 75.8281 151.546 78.3255 152.653Z" fill="#A41910"/>
<path d="M105.567 107.832C105.166 107.474 104.806 107.076 104.492 106.646L76.0589 125.029L80.7194 129.21L101.057 124.845C108.945 123.153 111.572 113.218 105.567 107.832Z" fill="#DB2116"/>
<path d="M104.492 106.646C103.756 105.636 103.283 104.45 103.18 103.191C102.9 99.7783 101.337 96.5324 98.7027 94.1692C96.0679 91.8061 92.6718 90.6047 89.249 90.6959C87.4485 90.7439 85.7135 90.0322 84.3763 88.8255C78.3712 83.4391 68.7799 87.127 67.9513 95.1514L56.7149 107.679L64.0658 132.783L97.2558 120.755C103.46 118.555 106.913 111.123 104.492 106.646Z" fill="#FF3A2F"/>
<path d="M87.369 125.362C91.9387 120.267 91.513 112.432 86.4183 107.863C81.3236 103.293 73.4889 103.719 68.9193 108.813C67.0955 110.847 66.0672 113.316 65.8142 115.841L61.2139 120.97L64.0661 132.783L80.7192 129.211C83.2012 128.686 85.545 127.395 87.369 125.362Z" fill="#A41910"/>
<path d="M53.1604 85.6031C52.6962 85.8741 52.2059 86.0938 51.7003 86.2589L60.3973 118.981L65.8131 115.84L67.9471 95.1489C68.7748 87.1251 60.1387 81.5563 53.1604 85.6031Z" fill="#DB2116"/>
<path d="M51.7003 86.2589C50.5121 86.6471 49.2381 86.7303 48.0085 86.4394C44.6765 85.651 41.1065 86.1339 38.0449 87.9093C34.9833 89.6847 32.7911 92.5434 31.8204 95.8269C31.3098 97.554 30.0965 98.9845 28.5357 99.8831C21.5573 103.93 22.1008 114.191 29.4764 117.459L37.9185 132.017L64.0658 132.783L62.8826 97.5008C62.7071 90.9207 56.706 85.3399 51.7003 86.2589Z" fill="#FF3A2F"/>
<path d="M64.2082 108.327C60.7749 102.407 53.1923 100.391 47.2721 103.824C41.3517 107.257 39.3355 114.84 42.7688 120.76C44.1393 123.123 46.1702 124.864 48.4932 125.885L51.9494 131.845L64.0658 132.783L65.8141 115.841C66.0817 113.318 65.5786 110.69 64.2082 108.327Z" fill="#A41910"/>
<path d="M15.8247 128.575C15.9391 129.101 15.9963 129.635 15.9973 130.167L49.8054 132.007L48.4922 125.886L29.473 117.462C22.0971 114.196 14.1325 120.688 15.8247 128.575Z" fill="#DB2116"/>
<path d="M15.9972 130.167C15.9994 131.417 15.6847 132.654 15.028 133.734C13.2486 136.659 12.6047 140.203 13.3472 143.664C14.0897 147.124 16.131 150.093 18.9539 152.03C20.4387 153.05 21.4241 154.646 21.7965 156.408C23.4889 164.295 33.4161 166.949 38.803 160.944L55.257 157.414L64.066 132.783L30.1447 123.006C23.8322 121.139 16.6701 125.122 15.9972 130.167Z" fill="#FF3A2F"/>
<path d="M40.8508 125.091C34.1592 126.526 29.8986 133.115 31.3344 139.806C32.7702 146.498 39.3587 150.758 46.0501 149.323C48.7211 148.75 51.0044 147.356 52.6932 145.462L59.4295 144.017L64.0659 132.783L48.4931 125.885C46.1763 124.851 43.5213 124.518 40.8508 125.091Z" fill="#A41910"/>
<path d="M45.1566 177.363C45.6916 177.417 46.2172 177.527 46.7233 177.691L58.9209 146.106L52.6934 145.463L38.805 160.949C33.419 166.954 37.1323 176.535 45.1566 177.363Z" fill="#DB2116"/>
<path d="M46.7233 177.691C47.9129 178.075 48.9923 178.757 49.8161 179.715C52.0483 182.311 55.2204 184.019 58.741 184.382C62.2614 184.745 65.7153 183.721 68.4306 181.635C69.8589 180.538 71.6812 180.094 73.4722 180.284C81.4965 181.112 87.0884 172.491 83.042 165.512L64.0658 132.783L44.2845 162.023C40.5587 167.45 42.1336 175.492 46.7233 177.691Z" fill="#FF3A2F"/>
<path d="M49.5757 152.485C48.8734 159.293 53.8228 165.381 60.6305 166.083C67.4382 166.785 73.5262 161.836 74.2287 155.028C74.5091 152.311 73.8892 149.709 72.6099 147.517L64.0659 132.783L52.6932 145.462C50.9936 147.346 49.8559 149.768 49.5757 152.485Z" fill="#A41910"/>
<path d="M62.5996 146.996C63.6459 148.574 65.5849 149.435 67.5483 149.014C69.5116 148.592 70.9267 147.012 71.2334 145.143C73.0075 145.805 75.0824 145.362 76.4231 143.867C77.7638 142.372 77.9798 140.262 77.1296 138.57C78.9539 138.062 80.3719 136.484 80.5779 134.487C80.7839 132.489 79.718 130.655 78.0357 129.786C79.2133 128.303 79.433 126.193 78.4256 124.456C77.4183 122.719 75.4778 121.861 73.6059 122.147C73.6871 120.255 72.6244 118.419 70.7885 117.606C68.9525 116.793 66.8786 117.24 65.5323 118.571C64.486 116.993 62.547 116.132 60.5836 116.553C58.6203 116.974 57.2052 118.555 56.8985 120.424C55.1244 119.762 53.0496 120.205 51.7088 121.7C50.3681 123.195 50.1521 125.305 51.0023 126.997C49.178 127.504 47.76 129.083 47.554 131.08C47.348 133.077 48.4139 134.912 50.0962 135.781C48.9186 137.264 48.6989 139.374 49.7063 141.111C50.7136 142.848 52.6541 143.705 54.526 143.42C54.4448 145.311 55.5076 147.148 57.3434 147.961C59.1792 148.774 61.2532 148.327 62.5996 146.996Z" fill="#FFD185"/>
<path d="M55.7872 129.116C53.7621 133.689 55.8268 139.037 60.3989 141.062C64.9711 143.087 70.3192 141.022 72.3444 136.45C74.3695 131.878 72.3048 126.53 67.7326 124.505C63.1605 122.48 57.8124 124.544 55.7872 129.116Z" fill="#FFBA48"/>
<path d="M61.3063 131.561C60.6312 133.085 61.3195 134.868 62.8435 135.543C64.3676 136.218 66.1503 135.53 66.8253 134.006C67.5004 132.482 66.8121 130.699 65.2881 130.024C63.764 129.349 61.9813 130.037 61.3063 131.561Z" fill="#FF7A3C"/>
</g>
<defs>
<clipPath id="clip0_6_172">
<rect width="100" height="100" fill="white" transform="translate(196.644 55.8878) rotate(113.89)"/>
</clipPath>
<clipPath id="clip1_6_172">
<rect width="100" height="100" fill="white" transform="translate(131.931 108.158) rotate(113.89)"/>
</clipPath>
</defs>
</svg>
